# xmcd
#
# Track frame offsets:
#	150
#	12573
#	26897
#	39205
#	51809
#	72532
#	84018
#	99053
#	113431
#	140339
#	146952
#
# Disc length: 2012 seconds
#
# Revision: 0
# Processed by: cddbd v1.5.1PL0 Copyright (c) Steve Scherf et al.
# Submitted via: dBpowerAMP V4.0
#
DISCID=8a07da0b
DTITLE=tecumseh flyers - fly a little higher
DYEAR=1900
DGENRE=roots
TTITLE0=corn liquor
TTITLE1=jesus is a harley davidson
TTITLE2=creole baby
TTITLE3=still in love with you
TTITLE4=sunday night dominatrix
TTITLE5=didgeridoo
TTITLE6=going downtown
TTITLE7=old
TTITLE8=cup of coffee
TTITLE9=buy the band a beer
TTITLE10=the c.v. song
EXTD=
EXTT0=
EXTT1=
EXTT2=
EXTT3=
EXTT4=
EXTT5=
EXTT6=
EXTT7=
EXTT8=
EXTT9=
EXTT10=
PLAYORDER=
